<svg width="16" height="16" viewBox="0 0 16 16" fill="none" xmlns="http://www.w3.org/2000/svg"><path fill-rule="evenodd" clip-rule="evenodd" d="M13.5592 1.35352C12.9734 0.767737 12.0237 0.767739 11.4379 1.35352L1.64502 11.1464C1.57133 11.2201 1.5225 11.315 1.50537 11.4178L1.02839 14.2797C0.960706 14.6858 1.31277 15.0378 1.71886 14.9702L4.58077 14.4932C4.68356 14.476 4.77843 14.4272 4.85212 14.3535L14.645 4.56063C15.2308 3.97484 15.2308 3.0251 14.645 2.43931L13.5592 1.35352ZM12.145 2.06063C12.3403 1.86537 12.6569 1.86537 12.8521 2.06063L13.9379 3.14642C14.1332 3.34168 14.1332 3.65826 13.9379 3.85352L12.1057 5.68576L10.3128 3.89287L12.145 2.06063ZM9.60568 4.59997L2.46542 11.7402L2.10685 13.8917L4.25832 13.5331L11.3986 6.39287L9.60568 4.59997Z" fill="#4F4F4F"></path></svg>
