<svg width="16" height="16" viewBox="0 0 16 16"><defs><path id="network" d="M8 1C11.866 1 15 4.13401 15 8C15 11.866 11.866 15 8 15C4.13401 15 1 11.866 1 8C1 4.13401 4.13401 1 8 1ZM8 14.125C8.45652 14.125 9.10538 13.7322 9.69225 12.5584C9.93164 12.0797 10.1366 11.5117 10.293 10.8759C9.5814 10.7143 8.8094 10.6252 7.99998 10.6252C7.19058 10.6252 6.41859 10.7143 5.70701 10.8759C5.86336 11.5117 6.06836 12.0797 6.30775 12.5584C6.89462 13.7322 7.54348 14.125 8 14.125ZM7.99998 9.75016C8.8618 9.75016 9.69256 9.84401 10.4668 10.0181C10.5687 9.38888 10.625 8.71081 10.625 8C10.625 7.28923 10.5687 6.61119 10.4668 5.98196C9.69257 6.1561 8.8618 6.24994 7.99998 6.24994C7.13817 6.24994 6.30742 6.1561 5.5332 5.98197C5.43133 6.6112 5.375 7.28923 5.375 8C5.375 8.71081 5.43134 9.38888 5.53321 10.0181C6.30743 9.844 7.13818 9.75016 7.99998 9.75016ZM5.70699 5.12421C5.86333 4.48834 6.06835 3.92037 6.30775 3.44156C6.89462 2.26783 7.54348 1.875 8 1.875C8.45652 1.875 9.10538 2.26783 9.69225 3.44156C9.93165 3.92037 10.1367 4.48833 10.293 5.12421C9.58142 5.28576 8.80941 5.37494 7.99998 5.37494C7.19057 5.37494 6.41857 5.28576 5.70699 5.12421ZM11.3156 5.75195C11.4352 6.45754 11.5 7.21363 11.5 8C11.5 8.78641 11.4352 9.54253 11.3156 10.2481C12.0354 10.4782 12.6907 10.7817 13.2566 11.1456C13.808 10.2262 14.125 9.15012 14.125 8C14.125 6.84992 13.808 5.77387 13.2567 4.85445C12.6907 5.21838 12.0355 5.52192 11.3156 5.75195ZM12.7538 4.13741C12.2853 4.43475 11.7403 4.68997 11.1365 4.89006C10.8656 3.79956 10.4568 2.87036 9.95567 2.19385C11.0643 2.56713 12.0311 3.24903 12.7538 4.13741ZM4.86352 4.89007C4.25968 4.68998 3.71465 4.43477 3.24621 4.13742C3.96893 3.24904 4.93569 2.56713 6.04433 2.19385C5.54319 2.87037 5.13436 3.79957 4.86352 4.89007ZM2.74332 4.85447C3.30928 5.2184 3.96452 5.52193 4.68439 5.75196C4.56483 6.45755 4.5 7.21363 4.5 8C4.5 8.78641 4.56484 9.54253 4.68441 10.2481C3.96455 10.4782 3.30932 10.7817 2.74337 11.1456C2.19199 10.2262 1.875 9.15011 1.875 8C1.875 6.84992 2.19197 5.77388 2.74332 4.85447ZM9.95567 13.8062C10.4568 13.1297 10.8656 12.2005 11.1365 11.11C11.7403 11.3101 12.2853 11.5653 12.7537 11.8627C12.031 12.751 11.0643 13.4329 9.95567 13.8062ZM6.04433 13.8062C4.93571 13.4329 3.96898 12.751 3.24627 11.8626C3.7147 11.5653 4.25972 11.3101 4.86354 11.11C5.13438 12.2005 5.54321 13.1297 6.04433 13.8062Z"></path></defs><use fill="#6B6B6B" fill-rule="evenodd" href="#network"></use></svg>
