<svg width="16" height="16" viewBox="0 0 16 16" fill="none" xmlns="http://www.w3.org/2000/svg"><path fill-rule="evenodd" clip-rule="evenodd" d="M6.409.534a6.513 6.513 0 0 0-5.84 5.573c-.065.425-.065 1.361 0 1.786.443 2.915 2.623 5.095 5.538 5.538.425.065 1.361.065 1.786 0a6.736 6.736 0 0 0 1.963-.606c.383-.187.949-.545 1.2-.759a.783.783 0 0 1 .162-.119c.012 0 .787.765 1.722 1.7l1.7 1.699.353-.353.353-.353-1.699-1.7c-.935-.935-1.7-1.71-1.7-1.722 0-.013.053-.085.119-.162.214-.251.572-.817.759-1.2.3-.615.499-1.261.606-1.963.065-.425.065-1.361 0-1.786C12.99 3.205 10.798 1.004 7.92.574a9.094 9.094 0 0 0-1.511-.04m1.457 1.025c1.783.304 3.257 1.385 4.053 2.974.264.525.418 1.001.525 1.615.066.373.066 1.331 0 1.704-.209 1.199-.728 2.217-1.552 3.04-.823.824-1.841 1.343-3.04 1.552-.373.066-1.331.066-1.704 0-1.201-.209-2.216-.727-3.04-1.552-.825-.824-1.343-1.839-1.552-3.04-.066-.373-.066-1.331 0-1.704.209-1.201.727-2.216 1.552-3.04.841-.842 1.995-1.418 3.119-1.558.132-.017.27-.035.306-.042.152-.026 1.094.01 1.333.051" fill="#6B6B6B"></path></svg>
