<svg xmlns="http://www.w3.org/2000/svg" height="20" width="20"><path d="M5.167 15.917q-.459 0-.771-.313-.313-.312-.313-.771V5.167q0-.459.313-.771.312-.313.771-.313h8.375l2.375 2.375v6.271l-.417.417v-6.5L13.354 4.5H5.167q-.292 0-.479.188-.188.187-.188.479v9.666q0 .292.188.479.187.188.479.188h8l-.417.417ZM10 13.167q.479 0 .823-.344t.344-.823q0-.479-.344-.823T10 10.833q-.479 0-.823.344T8.833 12q0 .479.344.823t.823.344ZM6.333 8.25h5.292V6.333H6.333Zm6.959 9.583v-.354l3.562-3.583.375.354-3.583 3.583Zm4.396-4.021-.355-.374.542-.542q.125-.125.24-.125.114 0 .239.125l-.125-.125q.125.125.125.25t-.125.25ZM4.5 15.5v-11 8.646Z"/></svg>